<?xml version="1.0" encoding="utf-8"?>
<?xml-stylesheet type="text/xsl" href="rss1.xsl"?>
<rss version="2.0" xmlns:atom="http://www.w3.org/2005/Atom" xmlns:content="http://purl.org/rss/1.0/modules/content/" xmlns:dc="http://purl.org/dc/elements/1.1/" xmlns:media="http://search.yahoo.com/mrss/">
<channel>
 <title>Getty</title>
 <link>http://www.gettyimg.com/</link>
 <atom:link href="http://www.gettyimg.com/" rel="self" type="application/rss+xml" />

 
                <item>
                <title><![CDATA[【MASTER &amp; MASTER RIP】MASTER - Feder ft. Alex Aiono - Lordly (AAC Master-1080p)]]></title>
                <link><![CDATA[https://sharemania.us/threads/feder-ft-alex-aiono-lordly-aac-master-1080p.221609/]]></link>
                <description><![CDATA[<article>
<blockquote class="messageText SelectQuoteContainer ugc baseHtml">
<img src="https://images2.imgbox.com/71/a7/NuituTPq_o.jpg" class="bbCodeImage LbImage" alt="[​IMG]" data-url="https://images2.imgbox.com/71/a7/NuituTPq_o.jpg" style=""><img src="https://images2.imgbox.com/e3/f9/nmnQVW4C_o.jpg" class="bbCodeImage LbImage" alt="[​IMG]" data-url="https://images2.imgbox.com/e3/f9/nmnQVW4C_o.jpg" style=""><br>
<div class="ToggleTriggerAnchor bbCodeSpoilerContainer">
<button type="button" class="button bbCodeSpoilerButton ToggleTrigger Tooltip JsOnly" data-target="> .SpoilerTarget"><span>Spoiler: <span class="SpoilerTitle">MediaInfo</span></span></button>
<div class="SpoilerTarget bbCodeSpoilerText">Format : MPEG-4<br>
Format profile : Base Media / Version 2<br>
Codec ID : mp42 (mp42/mp41)<br>
File size : 740 MiB<br>
Duration : 3 min 14 s<br>
Overall bit rate mode : Variable<br>
Overall bit rate : 31.9 Mb/s<br>
Encoded date : UTC 2017-07-20 09:28:59<br>
Tagged date : UTC 2017-07-20 09:28:59<br>
TIM : 00:00:00:00<br>
Video<br>
ID : 1<br>
Format : AVC<br>
Format/Info : Advanced Video Codec<br>
Format profile : High@L4.2<br>
Format settings : CABAC / 3 Ref Frames<br>
Format settings, CABAC : Yes<br>
Format settings, Reference : 3 frames<br>
Codec ID : avc1<br>
Codec ID/Info : Advanced Video Coding<br>
Duration : 3 min 14 s<br>
Bit rate : 31.6 Mb/s<br>
Width : 1 920 pixels<br>
Height : 1 080 pixels<br>
Display aspect ratio : 16:9<br>
Frame rate mode : Constant<br>
Frame rate : 25.000 FPS<br>
Standard : PAL<br>
Color space : YUV<br>
Chroma subsampling : 4:2:0<br>
Bit depth : 8 bits<br>
Scan type : Progressive<br>
Bits/(Pixel*Frame) : 0.610<br>
Stream size : 733 MiB (99%)<br>
Language : English<br>
Encoded date : UTC 2017-07-20 09:29:00<br>
Tagged date : UTC 2017-07-20 09:29:00<br>
Color range : Limited<br>
Color primaries : BT.709<br>
Transfer characteristics : BT.709<br>
Matrix coefficients : BT.709<br>
Codec configuration box : avcC<br>
Audio<br>
ID : 2<br>
Format : AAC LC<br>
Format/Info : Advanced Audio Codec Low Complexity<br>
Codec ID : mp4a-40-2<br>
Duration : 3 min 14 s<br>
Source duration : 3 min 14 s<br>
Bit rate mode : Variable<br>
Bit rate : 317 kb/s<br>
Maximum bit rate : 453 kb/s<br>
Channel(s) : 2 channels<br>
Channel layout : L R<br>
Sampling rate : 48.0 kHz<br>
Frame rate : 46.875 FPS (1024 SPF)<br>
Compression mode : Lossy<br>
Stream size : 7.36 MiB (1%)<br>
Source stream size : 7.36 MiB (1%)<br>
Language : English<br>
Encoded date : UTC 2017-07-20 09:29:00<br>
Tagged date : UTC 2017-07-20 09:29:00</div>
</div>
<div class="bbCodeBlock bbCodeVfcHH HiddenContent">
<div class="attribution type">Hidden Content:</div>
<blockquote>You must either reply or click 'Like' to see the hidden information contained here.</blockquote>
</div>
<div class="messageTextEndMarker">&nbsp;</div>
</blockquote>
</article>]]></description>
                <author><![CDATA[ianarturis]]></author>
                </item>

                
                <item>
                <title><![CDATA[【Albums (lossy)】MP3 - Marco Mengoni - Liberando Palabras (2016)]]></title>
                <link><![CDATA[https://sharemania.us/threads/marco-mengoni-liberando-palabras-2016.221607/]]></link>
                <description><![CDATA[<article>
<blockquote class="messageText SelectQuoteContainer ugc baseHtml">
<img src="https://m.media-amazon.com/images/I/91Ez3bxxZEL._AC_SL1500_.jpg" class="bbCodeImage LbImage" alt="[​IMG]" data-url="https://m.media-amazon.com/images/I/91Ez3bxxZEL._AC_SL1500_.jpg" style=""> <br>
<b>Data de lançamento: 16/02/2016<br>
Gênero: Pop<br>
Gravadora: Sony Music Entertainment Italy S.p.A.</b><br>
<b><br>
Faixas:</b><br>
<ol>
<li><i>Guerrero </i></li>
<li><i>Ser Humano </i></li>
<li><i>Invencible </i></li>
<li><i>Yo Te Espero </i></li>
<li><i>Antes De Que Caiga La Nieve</i></li>
<li><i>Volver A Empezar </i></li>
<li><i>A Un Segundo De Tu Piel</i></li>
<li><i>Eres Como Eres</i></li>
<li><i>Allí Donde Estés</i></li>
<li><i>Nada Es Para Siempre</i></li>
</ol>
<div class="bbCodeBlock bbCodeVfcHH HiddenContent">
<div class="attribution type">Hidden Content:</div>
<blockquote>You must either reply or click 'Like' to see the hidden information contained here.</blockquote>
</div>
<div class="messageTextEndMarker">&nbsp;</div>
</blockquote>
</article>]]></description>
                <author><![CDATA[Giulya]]></author>
                </item>

                
                <item>
                <title><![CDATA[【Requests】[REQ AUD] - Shania Twain - Up! (blue international version)]]></title>
                <link><![CDATA[https://sharemania.us/threads/shania-twain-up-blue-international-version.221612/]]></link>
                <description><![CDATA[<article>
<blockquote class="messageText SelectQuoteContainer ugc baseHtml">
Any format welcome
<div class="messageTextEndMarker">&nbsp;</div>
</blockquote>
</article>]]></description>
                <author><![CDATA[McQueen_69]]></author>
                </item>

                
                <item>
                <title><![CDATA[【Requests】[REQ AUD] - Papa Roach - Ready to Rumble [FLAC or M4A]]]></title>
                <link><![CDATA[https://sharemania.us/threads/papa-roach-ready-to-rumble-flac-or-m4a.221614/]]></link>
                <description><![CDATA[<article>
<blockquote class="messageText SelectQuoteContainer ugc baseHtml">
If anyone has it and can upload it it'd be greatly appreciated!
<div class="messageTextEndMarker">&nbsp;</div>
</blockquote>
</article>]]></description>
                <author><![CDATA[MeNoLikeYou]]></author>
                </item>

                
                <item>
                <title><![CDATA[【MASTER &amp; MASTER RIP】MASTER - DJ Shadow - Nobody Speak feat. Run The Jewels (AAC Master-1080p)]]></title>
                <link><![CDATA[https://sharemania.us/threads/dj-shadow-nobody-speak-feat-run-the-jewels-aac-master-1080p.221608/]]></link>
                <description><![CDATA[<article>
<blockquote class="messageText SelectQuoteContainer ugc baseHtml">
<img src="https://images2.imgbox.com/b7/7c/vg9vxV5v_o.jpg" class="bbCodeImage LbImage" alt="[​IMG]" data-url="https://images2.imgbox.com/b7/7c/vg9vxV5v_o.jpg" style="">[<img src="https://images2.imgbox.com/b1/26/CaTwKEn6_o.jpg" class="bbCodeImage LbImage" alt="[​IMG]" data-url="https://images2.imgbox.com/b1/26/CaTwKEn6_o.jpg" style=""><br>
<div class="ToggleTriggerAnchor bbCodeSpoilerContainer">
<button type="button" class="button bbCodeSpoilerButton ToggleTrigger Tooltip JsOnly" data-target="> .SpoilerTarget"><span>Spoiler: <span class="SpoilerTitle">MediaInfo</span></span></button>
<div class="SpoilerTarget bbCodeSpoilerText">Format : MPEG-4<br>
Format profile : QuickTime<br>
Codec ID : qt 2005.03 (qt )<br>
File size : 1.46 GiB<br>
Duration : 3 min 46 s<br>
Overall bit rate mode : Variable<br>
Overall bit rate : 55.5 Mb/s<br>
Encoded date : UTC 2016-08-25 08:39:28<br>
Tagged date : UTC 2016-08-25 09:28:31<br>
Writing library : Apple QuickTime<br>
Media/UUID : 2CD722FE-90EE-4694-BC03-4D6C6FCA4E4E<br>
Video<br>
ID : 1<br>
Format : AVC<br>
Format/Info : Advanced Video Codec<br>
Format profile : High@L5.2<br>
Format settings : 2 Ref Frames<br>
Format settings, CABAC : No<br>
Format settings, Reference : 2 frames<br>
Format settings, GOP : M=2, N=24<br>
Codec ID : avc1<br>
Codec ID/Info : Advanced Video Coding<br>
Duration : 3 min 46 s<br>
Bit rate mode : Variable<br>
Bit rate : 56.1 Mb/s<br>
Maximum bit rate : 81.9 Mb/s<br>
Width : 2 048 pixels<br>
Height : 871 pixels<br>
Original height : 872 pixels<br>
Display aspect ratio : 2.35:1<br>
Frame rate mode : Constant<br>
Frame rate : 25.000 FPS<br>
Color space : YUV<br>
Chroma subsampling : 4:2:0<br>
Bit depth : 8 bits<br>
Scan type : Progressive<br>
Bits/(Pixel*Frame) : 1.257<br>
Stream size : 1.45 GiB (99%)<br>
Language : English<br>
Encoded date : UTC 2016-08-25 09:26:52<br>
Tagged date : UTC 2016-08-25 09:28:31<br>
Color range : Limited<br>
Color primaries : BT.709<br>
Transfer characteristics : BT.709<br>
Matrix coefficients : BT.709<br>
Codec configuration box : avcC<br>
Audio<br>
ID : 2<br>
Format : AAC LC<br>
Format/Info : Advanced Audio Codec Low Complexity<br>
Codec ID : mp4a-40-2<br>
Duration : 3 min 46 s<br>
Source duration : 3 min 46 s<br>
Bit rate mode : Constant<br>
Bit rate : 303 kb/s<br>
Nominal bit rate : 320 kb/s<br>
Channel(s) : 2 channels<br>
Channel layout : L R<br>
Sampling rate : 48.0 kHz<br>
Frame rate : 46.875 FPS (1024 SPF)<br>
Compression mode : Lossy<br>
Stream size : 8.17 MiB (1%)<br>
Source stream size : 8.17 MiB (1%)<br>
Language : English<br>
Encoded date : UTC 2016-08-25 09:26:54<br>
Tagged date : UTC 2016-08-25 09:28:31<br>
Other<br>
ID : 3<br>
Type : Time code<br>
Format : QuickTime TC<br>
Duration : 3 min 46 s<br>
Frame rate : 25.000 FPS<br>
Time code of first frame : 00:00:00:00<br>
Time code, striped : Yes<br>
Language : English<br>
Encoded date : UTC 2016-08-25 09:28:31<br>
Tagged date : UTC 2016-08-25 09:28:31</div>
</div>
<div class="bbCodeBlock bbCodeVfcHH HiddenContent">
<div class="attribution type">Hidden Content:</div>
<blockquote>You must either reply or click 'Like' to see the hidden information contained here.</blockquote>
</div>
<div class="messageTextEndMarker">&nbsp;</div>
</blockquote>
</article>]]></description>
                <author><![CDATA[ianarturis]]></author>
                </item>

                
                <item>
                <title><![CDATA[【Music Videos】Taylor Swift f. Ice Spice - Karma 4K Upscale]]></title>
                <link><![CDATA[https://sharemania.us/threads/taylor-swift-f-ice-spice-karma-4k-upscale.221611/]]></link>
                <description><![CDATA[<article>
<blockquote class="messageText SelectQuoteContainer ugc baseHtml">
<img src="https://img.kiwi/images/2023/05/28/cae530ef63d35d59dfb45de8849d400c.png" class="bbCodeImage LbImage" alt="[​IMG]" data-url="https://img.kiwi/images/2023/05/28/cae530ef63d35d59dfb45de8849d400c.png" style=""><br>
<br>
<div class="bbCodeBlock bbCodeCode">
<div class="type">Code:</div>
<pre>Format            : Matroska at 158 Mb/s
Length            : 3.78 GiB for 3 min 25 s 148 ms

Video #0          : AVC at 157 Mb/s
Aspect            : 3840 x 2160 (1.778) at 23.976 fps

Audio #0          : PCM at 1 536 kb/s
Infos             : 2 channels, 48.0 kHz
</pre>
</div>
<div class="bbCodeBlock bbCodeVfcHH HiddenContent">
<div class="attribution type">Hidden Content:</div>
<blockquote>You must reply before you can see the hidden data contained here.</blockquote>
</div>
<div class="messageTextEndMarker">&nbsp;</div>
</blockquote>
</article>]]></description>
                <author><![CDATA[mrsteze]]></author>
                </item>

                
                <item>
                <title><![CDATA[【Albums (lossless)】ALAC - Mary J. Blige - What's the 411? (Apple Music Lossless 24-bit/44.1kHz ALAC) Apple Digital Master]]></title>
                <link><![CDATA[https://sharemania.us/threads/mary-j-blige-whats-the-411-apple-music-lossless-24-bit-44-1khz-alac-apple-digital-master.221610/]]></link>
                <description><![CDATA[<article>
<blockquote class="messageText SelectQuoteContainer ugc baseHtml">
<img src="https://is5-ssl.mzstatic.com/image/thumb/Music122/v4/43/54/ba/4354ba48-b993-9c58-af75-2987f1d2fcab/06UMGIM05898.rgb.jpg/1200x1200bf-60.jpg" class="bbCodeImage LbImage" alt="[​IMG]" data-url="https://is5-ssl.mzstatic.com/image/thumb/Music122/v4/43/54/ba/4354ba48-b993-9c58-af75-2987f1d2fcab/06UMGIM05898.rgb.jpg/1200x1200bf-60.jpg" style=""><br>
24-bit/44.1kHz ALAC<br>
<br>
<a href="https://drive.google.com/drive/folders/1u-US-1le7ureXp2Qbu6noHx6-IAMLfgW?usp=share_link" target="_blank" class="externalLink" rel="nofollow">https://drive.google.com/drive/folders/1u-US-1le7ureXp2Qbu6noHx6-IAMLfgW?usp=share_link</a><br>
<br>
<br>
<br>
Apple Digital Master<br>
<br>
<a href="https://drive.google.com/drive/folders/1T1Ii3idE7xsD4vMToyNRqOBJ0Kxa88yF?usp=share_link" target="_blank" class="externalLink" rel="nofollow">https://drive.google.com/drive/folders/1T1Ii3idE7xsD4vMToyNRqOBJ0Kxa88yF?usp=share_link</a>
<div class="messageTextEndMarker">&nbsp;</div>
</blockquote>
</article>]]></description>
                <author><![CDATA[jay2chill1]]></author>
                </item>

                </channel></rss>